<svg xmlns="http://www.w3.org/2000/svg" width="46.72" height="46.043" viewBox="0 0 46.72 46.043">
  <g id="Group_41472" data-name="Group 41472" transform="translate(-1 6.052)">
    <path id="Path_27593" data-name="Path 27593" d="M4.574,8.4,2.446,6.273,6.273,2.446,8.4,4.574a12.108,12.108,0,0,1,3.777-1.566V0h5.413V3.008a12.108,12.108,0,0,1,3.777,1.566L23.5,2.446l3.827,3.827L25.2,8.4a12.108,12.108,0,0,1,1.566,3.777h3.008v5.413H26.761A12.108,12.108,0,0,1,25.2,21.368L27.323,23.5,23.5,27.323,21.368,25.2a12.108,12.108,0,0,1-3.777,1.566v3.008H12.178V26.761A12.108,12.108,0,0,1,8.4,25.2L6.273,27.323,2.446,23.5l2.128-2.128a12.108,12.108,0,0,1-1.566-3.777H0V12.178H3.008A12.108,12.108,0,0,1,4.574,8.4ZM14.885,18.944a4.059,4.059,0,1,0-4.059-4.059A4.059,4.059,0,0,0,14.885,18.944Z" transform="translate(7.054 8.832) rotate(-30)" fill="#ea6b23" fill-rule="evenodd"/>
    <path id="Path_27594" data-name="Path 27594" d="M1,53.075a3.112,3.112,0,0,1,2.682-3.017l8.82-1.015,8.82,1.015A3.106,3.106,0,0,1,24,53.075v4.734H1Z" transform="translate(0 -17.819)" fill="#f9ac19" fill-rule="evenodd"/>
    <path id="Path_27595" data-name="Path 27595" d="M10.383,37.1A11.309,11.309,0,0,1,7,29.442a7.442,7.442,0,1,1,14.885,0A11.309,11.309,0,0,1,18.5,37.1v4.522a18.019,18.019,0,0,1-4.059.98,18.019,18.019,0,0,1-4.059-.98Z" transform="translate(-1.941 -9.073)" fill="#9f9f9f" fill-rule="evenodd"/>
    <circle id="Ellipse_7" data-name="Ellipse 7" cx="2.03" cy="2.03" r="2.03" transform="translate(4.383 21.723)" fill="#9f9f9f"/>
    <circle id="Ellipse_8" data-name="Ellipse 8" cx="2.03" cy="2.03" r="2.03" transform="translate(16.561 21.723)" fill="#9f9f9f"/>
  </g>
</svg>
