<svg xmlns="http://www.w3.org/2000/svg" width="40.799" height="40.498" viewBox="0 0 40.799 40.498">
  <path id="home-svgrepo-com" d="M0,17.228l2.478,2.439H7.395V36.895a2.418,2.418,0,0,0,2.439,2.439H14.75V29.5a2.354,2.354,0,0,1,.708-1.731,2.4,2.4,0,0,1,1.77-.708h4.917a2.44,2.44,0,0,1,1.731.708,2.169,2.169,0,0,1,.708,1.731v9.833H29.5a2.354,2.354,0,0,0,1.731-.708,2.5,2.5,0,0,0,.747-1.731V19.667h4.917l2.439-2.439L19.667,0Zm14.75,0a4.773,4.773,0,0,1,1.455-3.5,4.592,4.592,0,0,1,3.461-1.416,5.016,5.016,0,0,1,3.461,1.416,4.609,4.609,0,0,1,1.455,3.5,4.486,4.486,0,0,1-1.455,3.461,5.438,5.438,0,0,1-3.461,1.455,4.2,4.2,0,0,1-3.461-1.455A4.994,4.994,0,0,1,14.75,17.228Z" transform="translate(0.734 0.665)" fill="#0974b9" stroke="#707070" stroke-width="1"/>
</svg>
