<svg xmlns="http://www.w3.org/2000/svg" width="50.879" height="31.313" viewBox="0 0 50.879 31.313">
  <g id="library-placeholder-svgrepo-com" transform="translate(-35.883 -12.194)">
    <g id="Group_41465" data-name="Group 41465" transform="translate(35.883 12.194)">
      <path id="Path_27590" data-name="Path 27590" d="M145.539,55.683c-2.451,0-4.326.632-5.422,1.827a3.693,3.693,0,0,0-.733,1.146v25.2a14.254,14.254,0,0,1,5.831-1.1c5.8,0,12.6,2.415,16.913,4.24V60.763c-2.171-1.071-4.27-1.991-6.248-2.742A30.379,30.379,0,0,0,145.539,55.683Zm9.636,13.532a16.754,16.754,0,0,0-10.694-3.187c-2.551.057-2.545-3.895,0-3.952a20.26,20.26,0,0,1,12.687,3.729C159.208,67.287,157.236,70.719,155.175,69.215Z" transform="translate(-111.248 -55.683)" fill="#0974b9"/>
      <path id="Path_27591" data-name="Path 27591" d="M87.918,55.683A30.352,30.352,0,0,0,77.58,58.021c-1.978.752-4.076,1.673-6.248,2.744V87c4.316-1.825,11.116-4.24,16.912-4.24a14.409,14.409,0,0,1,5.673,1.027V58.3a3.879,3.879,0,0,0-.561-.79C92.269,56.313,90.387,55.683,87.918,55.683Zm.62,10.345a16.776,16.776,0,0,0-10.694,3.187c-2.065,1.5-4.033-1.928-1.993-3.413a20.3,20.3,0,0,1,12.687-3.728C91.081,62.134,91.087,66.085,88.538,66.028Z" transform="translate(-71.332 -55.683)" fill="#0974b9"/>
    </g>
  </g>
</svg>
