<svg xmlns="http://www.w3.org/2000/svg" width="17" height="23" viewBox="0 0 17 23">
  <g id="bookmark" transform="translate(-358 -27)">
    <path id="bookmark-svgrepo-com" d="M19.084,1.25H5.75a.5.5,0,0,0-.5.5h0V20.536h0a.5.5,0,0,0,.817.385h0l6.354-5.2,6.351,5.081a.5.5,0,0,0,.813-.391V1.75a.5.5,0,0,0-.5-.5h0Zm-.5,18.127L12.73,14.693a.5.5,0,0,0-.63,0h0L6.25,19.482V2.25H18.584Z" transform="translate(352.75 28.75)" fill="#fff"/>
    <rect id="Rectangle_18628" data-name="Rectangle 18628" width="17" height="1" transform="translate(358 27)" fill="#fff"/>
    <rect id="Rectangle_18629" data-name="Rectangle 18629" width="1" height="22" transform="translate(374 28)" fill="#fff"/>
  </g>
</svg>
