<svg id="Group_41530" data-name="Group 41530" xmlns="http://www.w3.org/2000/svg" xmlns:xlink="http://www.w3.org/1999/xlink" width="369" height="369" viewBox="0 0 369 369">
  <defs>
    <clipPath id="clip-path">
      <rect id="Rectangle_18635" data-name="Rectangle 18635" width="369" height="369" fill="none"/>
    </clipPath>
  </defs>
  <g id="Group_41529" data-name="Group 41529" clip-path="url(#clip-path)">
    <path id="Path_27723" data-name="Path 27723" d="M122.15,125.247a75.847,75.847,0,0,0,25.635,1.1c13.122-1.781,30.48-6.751,42.552-20.071,21.859-24.119,61.45-48.439,86.422-17.7s16.244,65.683,39.5,73.5,46.344,36.35,29.168,73.711c-20.571,44.747-60.636,15.437-38.073,70.585,11.538,28.2-63.554,32.212-100.661,12.3-34.007-18.251-67.53,29.806-99.406-.979s16.806-68.74-7.414-89.417-42.338-33.359-30.795-70.2c8.657-27.63,39.994-35.541,53.067-32.828" transform="translate(-17.165 -19.425)" fill="#f5f8ff"/>
    <path id="Path_27724" data-name="Path 27724" d="M428.65,410.8c-2.155-3.645-7.518-17.3,15.826-38.42a1.269,1.269,0,0,1,2.109.746c1.058,6.987,2.582,28.42-16.257,38.152a1.27,1.27,0,0,1-1.678-.479" transform="translate(-111.757 -97.477)" fill="#e1ecfa"/>
    <path id="Path_27725" data-name="Path 27725" d="M445.752,377.307a69.639,69.639,0,0,1-7.962,18.01,53.488,53.488,0,0,0-7.1,17.1" transform="translate(-112.842 -98.854)" fill="#e1ecfa"/>
    <path id="Path_27726" data-name="Path 27726" d="M421.985,412.389c1.167-3.974,2.97-18.2-24.24-32.62a1.242,1.242,0,0,0-1.821,1.215c.677,6.879,4.384,27.564,24.584,32.263a1.245,1.245,0,0,0,1.477-.858" transform="translate(-103.73 -99.461)" fill="#e1ecfa"/>
    <path id="Path_27727" data-name="Path 27727" d="M399.3,384.443A68.1,68.1,0,0,0,411.181,399.6a52.335,52.335,0,0,1,10.837,14.5" transform="translate(-104.617 -100.724)" fill="#e1ecfa"/>
    <path id="Path_27728" data-name="Path 27728" d="M68.01,408.125c2.618-4.427,9.131-21.006-19.223-46.664a1.542,1.542,0,0,0-2.562.907c-1.285,8.486-3.135,34.517,19.747,46.339a1.544,1.544,0,0,0,2.039-.582" transform="translate(-11.934 -94.597)" fill="#e1ecfa"/>
    <path id="Path_27729" data-name="Path 27729" d="M49.621,367.443s3.227,12.181,9.671,21.875a65,65,0,0,1,8.618,20.765" transform="translate(-13.001 -96.27)" fill="#e1ecfa"/>
    <path id="Path_27730" data-name="Path 27730" d="M78.621,413.018c-1.167-3.973-2.969-18.2,24.242-32.62a1.241,1.241,0,0,1,1.82,1.215c-.677,6.879-4.384,27.564-24.586,32.262a1.243,1.243,0,0,1-1.476-.858" transform="translate(-20.455 -99.626)" fill="#e1ecfa"/>
    <path id="Path_27731" data-name="Path 27731" d="M102.688,385.072A68.122,68.122,0,0,1,90.81,400.233a52.332,52.332,0,0,0-10.837,14.5" transform="translate(-20.953 -100.889)" fill="#e1ecfa"/>
    <path id="Path_27732" data-name="Path 27732" d="M351.507,301.28l11.052-19.9,11.055-19.9a3.362,3.362,0,0,1,5.934,0l11.052,19.9,11.053,19.9a3.563,3.563,0,0,1-2.966,5.343h-9.1l-.334,70.493-25.81-.886V306.623h-8.973a3.564,3.564,0,0,1-2.966-5.343" transform="translate(-91.973 -68.039)" fill="#e1ecfa"/>
    <path id="Path_27733" data-name="Path 27733" d="M124.627,161.819l11.053-19.145,11.054-19.144a3.425,3.425,0,0,1,5.934,0l11.054,19.144,11.053,19.145a3.425,3.425,0,0,1-2.967,5.138h-9.035l-.1,157.83H136.629V166.957h-9.035a3.425,3.425,0,0,1-2.967-5.138" transform="translate(-32.531 -31.916)" fill="#e1ecfa"/>
    <path id="Path_27734" data-name="Path 27734" d="M201.962,269.193l11.053-19.905,11.054-19.9a3.362,3.362,0,0,1,5.934,0l11.054,19.9,11.052,19.905a3.563,3.563,0,0,1-2.966,5.342h-9.1l-.466,98.692c0,2.241-4.912-2.469-7.069-2.469l-13.677-.82c-2.156,0-4.932,4.867-4.932,2.625V274.535h-8.972a3.564,3.564,0,0,1-2.967-5.342" transform="translate(-52.792 -59.632)" fill="#e1ecfa"/>
    <path id="Path_27735" data-name="Path 27735" d="M389.259,172.216l.556-18.15-1,1.385-.7,16.792.022.017c-2.086.661-2.441,4.283-2.5,5.656a.565.565,0,0,0,.5.586l1.7.195a.561.561,0,0,0,.614-.444l.2-.97.477,1.256a.56.56,0,0,0,.462.359l.977.112a.561.561,0,0,0,.627-.528c.077-1.57.082-5.734-1.95-6.268" transform="translate(-101.039 -40.365)" fill="#f0c66c"/>
    <path id="Path_27736" data-name="Path 27736" d="M323.6,97.272l47.49,6.078a2.157,2.157,0,0,1,1.686,1.238l19.286,41.9a2.158,2.158,0,0,1-2.277,3.037l-45.81-6.792a2.154,2.154,0,0,1-1.606-1.156L321.4,100.391a2.158,2.158,0,0,1,2.2-3.119" transform="translate(-84.144 -25.481)" fill="#264256"/>
    <rect id="Rectangle_18634" data-name="Rectangle 18634" width="5.852" height="22.445" transform="translate(235.477 187.233)" fill="#f0c66c"/>
    <path id="Path_27737" data-name="Path 27737" d="M332.241,301.291H301.913a1.63,1.63,0,0,1-1.63-1.63V284.413a1.631,1.631,0,0,1,1.63-1.63h30.328a1.63,1.63,0,0,1,1.63,1.63v15.248a1.63,1.63,0,0,1-1.63,1.63" transform="translate(-78.674 -74.089)" fill="#e69724"/>
    <path id="Path_27738" data-name="Path 27738" d="M361.285,164.124c-5.41-9.218-15.641-5.929-20.384-3.73l1.54-10.473a5.662,5.662,0,0,0-5.528-6.487l-65.309-.871a6.061,6.061,0,0,0-6.122,6.539l.882,11.117c-4.891-2.188-14.729-5.074-20,3.9-6.724,11.454,9.822,43.845,30.068,35.651a34.552,34.552,0,0,0,6.9,5.988c.056.038.106.069.164.1.527.308,3.5,2.041,5.239,2.795a2.387,2.387,0,0,1,.278.141c5.231,3.109,12.03,8.221,10.853,13.264l5.776-.032s-1.883-7.314,9.387-11.972c.74-.242,2.262-.835,2.6-.968.047-.017.088-.034.134-.054a33.292,33.292,0,0,0,12.708-9.588c20.584,9.318,37.625-23.731,30.818-35.327m-108.312,3.99c3.552-6.052,9.9-4.83,13.752-3.339l1.19,15a34.12,34.12,0,0,0,5.117,15.452c-13.96,3.024-24.792-19.047-20.058-27.111m80.575,26.831a32.859,32.859,0,0,0,3.961-11.486l2.7-18.4c3.73-1.592,10.683-3.39,14.463,3.051,4.854,8.27-6.659,31.265-21.129,26.831" transform="translate(-64.149 -37.352)" fill="#f0c66c"/>
    <path id="Path_27739" data-name="Path 27739" d="M273.227,156.688H349.1l-.408,4.99H273.622Z" transform="translate(-71.585 -41.052)" fill="#e69724"/>
    <path id="Path_27740" data-name="Path 27740" d="M326.627,255.327H314.7a.726.726,0,0,1-.727-.726v-3.585a.727.727,0,0,1,.727-.727h11.923a.727.727,0,0,1,.726.727V254.6a.726.726,0,0,1-.726.726" transform="translate(-82.262 -65.576)" fill="#e69724"/>
    <path id="Path_27741" data-name="Path 27741" d="M340.434,116.676,329.847,131.4a3.841,3.841,0,0,0-.142,4.285c3.545,5.648,14.232,20.161,31.991,23.085a3.819,3.819,0,0,0,3.7-1.56l10.734-14.922a3.845,3.845,0,0,0,.326-3.956,42.578,42.578,0,0,0-32.388-23.22,3.83,3.83,0,0,0-3.637,1.57" transform="translate(-86.229 -30.148)" fill="#315782"/>
    <path id="Path_27742" data-name="Path 27742" d="M192.39,371.086l-.128,4.127-5.322-.027.021-4.127Z" transform="translate(-48.978 -97.218)" fill="#f3d6c1"/>
    <path id="Path_27743" data-name="Path 27743" d="M186.933,376.652l5.206.027a.978.978,0,0,1,.231.027,38.12,38.12,0,0,1,8.7,3.3,1.029,1.029,0,0,1-.511,1.924l-12.624-.063a1.028,1.028,0,0,1-1.022-1.033Z" transform="translate(-48.971 -98.683)" fill="#2f526e"/>
    <path id="Path_27744" data-name="Path 27744" d="M139.99,382.686l-.128,4.127-5.322-.026.021-4.127Z" transform="translate(-35.25 -100.257)" fill="#f3d6c1"/>
    <path id="Path_27745" data-name="Path 27745" d="M134.534,388.252l5.206.026a1.019,1.019,0,0,1,.231.027,38.173,38.173,0,0,1,8.7,3.306,1.028,1.028,0,0,1-.511,1.923l-12.623-.063a1.027,1.027,0,0,1-1.022-1.032Z" transform="translate(-35.242 -101.722)" fill="#2f526e"/>
    <path id="Path_27746" data-name="Path 27746" d="M149.021,308l-5.137,26.883-10.29,29.054s-.52.956.908,1.4h5.6a1.9,1.9,0,0,0,1.163-.866l11.526-21.715,6.674-21.838L174.8,332.545l-3.415,22.75s.038.65.942.65h6.221a1.254,1.254,0,0,0,.819-.856l5.987-25.08c0-.01.007-.019.01-.029.031-.085.142-.567-.765-1.675-1.007-1.232-14.511-17.736-14.511-17.736Z" transform="translate(-34.977 -80.696)" fill="#f0c66c"/>
    <path id="Path_27747" data-name="Path 27747" d="M204.967,265.468l3.963,2.108,11.994-9.054a6.969,6.969,0,0,1-.889-3.7c.265-1.653.753-1.956,1.089-1.683s.3,2.257,1.014,2.635,1.03-.032,1.877-2.275,1.22-3.275,1.925-3.3.625,1.558.625,1.558a1.25,1.25,0,0,1,1.106-.01.844.844,0,0,1,.289.935.983.983,0,0,1,.918.26,1,1,0,0,1,.2,1.134s.882-.361.886.937-.621,5.5-5.915,6.505c0,0-12.539,15.046-14.519,15.029s-7.7-1.965-7.7-1.965Z" transform="translate(-52.88 -65.552)" fill="#f3d6c1"/>
    <path id="Path_27748" data-name="Path 27748" d="M147.43,311.487h-3.486A8.551,8.551,0,0,0,141.8,306.6a8.255,8.255,0,0,0-6.26-2.372,8.112,8.112,0,0,0-7.795,4.52,10.668,10.668,0,0,0-.919,2.736h-3.613a1.949,1.949,0,0,0-1.95,1.95v14.828a1.951,1.951,0,0,0,1.95,1.951h24.22a1.951,1.951,0,0,0,1.951-1.951V313.437a1.95,1.95,0,0,0-1.951-1.95m-11.894-4.629a5.148,5.148,0,0,1,5.757,4.629H129.489a5.725,5.725,0,0,1,6.048-4.629" transform="translate(-31.77 -79.709)" fill="#315780"/>
    <path id="Path_27749" data-name="Path 27749" d="M148.332,275.507l-4.4.912-3.43,14.632a6.95,6.95,0,0,1,3.05,2.279c.854,1.441.852,2.73.433,2.4a5.905,5.905,0,0,0-1.135-.635c-.694-.325-1.062-.772-1.52-.675-.793.168-1.594.65-.694,2.208.874,1.511,3.158,1.633,2.662,2.135a1.7,1.7,0,0,1-2.5-.014s-.318.713-.887.79-.943-.888-.943-.888a1.261,1.261,0,0,1-1,.636c-.66.01-.943-.886-.943-.886s-.874,1.065-1.706.069-2.564-3.561.862-7.723c0,0,.018-19.586,1.552-20.839s7.173-3.41,7.173-3.41Z" transform="translate(-35.147 -69.822)" fill="#f3d6c1"/>
    <path id="Path_27750" data-name="Path 27750" d="M151.7,296.126c2.875,1.135,13.852,5.085,22.8,3.093a.863.863,0,0,0,.67-.832c.046-2.813.344-13.652,2.215-17.236,1.387-2.661,2.2-4.387,2.607-5.279a.864.864,0,0,1,1.086-.452l6.436,2.354a.869.869,0,0,0,1.114-.52l3.069-8.5a.866.866,0,0,0-.472-1.09c-2.357-1.022-9.843-4.124-15.818-5.021-7.114-1.067-9.649-8.66-28.893,1.96a.787.787,0,0,0-.346.985l3.313,7.967a.867.867,0,0,0,1.111.477l5.5-2.094a.868.868,0,0,1,1.146,1.04l-6.044,22.116a.864.864,0,0,0,.514,1.035" transform="translate(-38.281 -67.862)" fill="#315782"/>
    <path id="Path_27751" data-name="Path 27751" d="M188.817,237.14a17.192,17.192,0,0,0,1.956,5.269c1.84,3.658,1.25,9.079-1.587,10.141a6.353,6.353,0,0,1-3.79.342l-1.138,5.781-7.08-2.773.776-4.909-1.413-11.08Z" transform="translate(-46.254 -62.131)" fill="#f3d6c1"/>
    <path id="Path_27752" data-name="Path 27752" d="M189.105,232.257a.774.774,0,0,0-.985-.827c-1.087.333-3.2.641-7.01.131-7.277-.973-11.026,5.323-10.972,9.886.046,3.911,4.232,6.117,5.55,7.756a.766.766,0,0,0,1.141.038,7.817,7.817,0,0,0,1.836-2.362c.055-.706-2.01-.815-2.118-2.934s2.715-2.39,3.531-.76.434-4.02,1.955-4.563c1.4-.5,6.574-1.685,7.072-6.365" transform="translate(-44.576 -60.626)" fill="#2f5482"/>
    <path id="Path_27753" data-name="Path 27753" d="M177.666,261.038s-1.741,4.263,2.6,5.875,4.474-3.546,4.474-3.546Z" transform="translate(-46.458 -68.392)" fill="#f3d6c1"/>
    <path id="Path_27754" data-name="Path 27754" d="M219.089,372.49a1.106,1.106,0,0,0,1.06,1.148H322c7.554,0,13.678-5.485,13.678-12.249v-3.994c0-6.765-6.124-12.248-13.678-12.248H220.149a1.106,1.106,0,0,0-1.06,1.147v.207a1.106,1.106,0,0,0,1.052,1.148l1.331.011.075,23.683h-1.4a1.106,1.106,0,0,0-1.06,1.147" transform="translate(-57.401 -90.428)" fill="#315782"/>
    <path id="Path_27755" data-name="Path 27755" d="M290.568,348.419l-68.381.1.076,23.683h69.013a6.7,6.7,0,0,0,6.426-6.952v-9.111c0-4.263-3.194-7.718-7.134-7.718" transform="translate(-58.213 -91.286)" fill="#f9ecdc"/>
    <path id="Path_27756" data-name="Path 27756" d="M343.62,364.767v-2.394a1.28,1.28,0,0,0-1.281-1.28H332.51a1.281,1.281,0,0,0-1.282,1.28v2.394a1.282,1.282,0,0,0,1.282,1.282h9.829a1.282,1.282,0,0,0,1.281-1.282" transform="translate(-86.782 -94.606)" fill="#e69724"/>
    <line id="Line_2" data-name="Line 2" x1="71.528" transform="translate(164.145 260.826)" fill="none" stroke="#f0c66c" stroke-linecap="round" stroke-width="1"/>
    <line id="Line_3" data-name="Line 3" x1="66.37" transform="translate(164.145 264.397)" fill="none" stroke="#f0c66c" stroke-linecap="round" stroke-width="1"/>
    <line id="Line_4" data-name="Line 4" x1="71.528" transform="translate(164.145 270.862)" fill="none" stroke="#f0c66c" stroke-linecap="round" stroke-width="1"/>
    <line id="Line_5" data-name="Line 5" x1="72.649" transform="translate(164.146 277.573)" fill="none" stroke="#f0c66c" stroke-linecap="round" stroke-width="1"/>
    <path id="Path_27757" data-name="Path 27757" d="M349.262,413.056c0,.682-.759,1.235-1.7,1.235H184.516c-12.094,0-21.9-5.9-21.9-13.176v-4.3c0-7.276,9.8-13.174,21.9-13.174h163.05c.936,0,1.7.552,1.7,1.233v.224c0,.678-.751,1.23-1.684,1.235l-2.13.012-.12,25.474h2.238c.937,0,1.7.553,1.7,1.235" transform="translate(-42.606 -100.515)" fill="#e69724"/>
    <path id="Path_27758" data-name="Path 27758" d="M257.428,387.164l110.089.106-.12,25.474H257.983c-6.2,0-11.226-3.657-11.226-8.168v-9.647c0-4.289,4.778-7.764,10.672-7.764" transform="translate(-64.65 -101.437)" fill="#f9ecdc"/>
    <path id="Path_27759" data-name="Path 27759" d="M223.054,410.392h-3.582a1.872,1.872,0,0,1-1.872-1.872v-10.7a1.872,1.872,0,0,1,1.872-1.872h3.582a1.872,1.872,0,0,1,1.872,1.872v10.7a1.873,1.873,0,0,1-1.872,1.872" transform="translate(-57.011 -103.739)" fill="#315780"/>
    <path id="Path_27760" data-name="Path 27760" d="M207.844,410.478h-3.581a1.871,1.871,0,0,1-1.872-1.872V397.912a1.871,1.871,0,0,1,1.872-1.872h3.581a1.872,1.872,0,0,1,1.872,1.872v10.694a1.872,1.872,0,0,1-1.872,1.872" transform="translate(-53.027 -103.762)" fill="#315780"/>
    <line id="Line_6" data-name="Line 6" x2="108.336" transform="translate(194.385 289.699)" fill="none" stroke="#f0c66c" stroke-linecap="round" stroke-width="1"/>
    <line id="Line_7" data-name="Line 7" x2="93.609" transform="translate(209.179 298.266)" fill="none" stroke="#f0c66c" stroke-linecap="round" stroke-width="1"/>
    <line id="Line_8" data-name="Line 8" x2="117.059" transform="translate(185.662 301.474)" fill="none" stroke="#f0c66c" stroke-linecap="round" stroke-width="1"/>
    <line id="Line_9" data-name="Line 9" x2="112.241" transform="translate(190.48 308.693)" fill="none" stroke="#f0c66c" stroke-linecap="round" stroke-width="1"/>
    <path id="Path_27761" data-name="Path 27761" d="M346.941,334.51a1.075,1.075,0,0,1-1.027,1.119h-98.7c-7.32,0-13.254-5.345-13.254-11.937V319.8c0-6.592,5.934-11.937,13.254-11.937h98.7a1.075,1.075,0,0,1,1.027,1.118v.2a1.076,1.076,0,0,1-1.019,1.118l-1.289.01-.073,23.081h1.355a1.076,1.076,0,0,1,1.027,1.119" transform="translate(-61.299 -80.66)" fill="#f0c66c"/>
    <path id="Path_27762" data-name="Path 27762" d="M291.353,311.052l66.638.1-.072,23.08h-66.23c-3.753,0-6.8-3.313-6.8-7.4v-8.742a6.765,6.765,0,0,1,6.459-7.034" transform="translate(-74.642 -81.496)" fill="#f9ecdc"/>
    <path id="Path_27763" data-name="Path 27763" d="M269.807,332.1h-.69a1.872,1.872,0,0,1-1.872-1.872v-9.338a1.872,1.872,0,0,1,1.872-1.872h.69a1.872,1.872,0,0,1,1.872,1.872v9.338a1.872,1.872,0,0,1-1.872,1.872" transform="translate(-70.018 -83.582)" fill="#e69724"/>
    <path id="Path_27764" data-name="Path 27764" d="M260.6,332.176h-.69a1.872,1.872,0,0,1-1.872-1.872v-9.338a1.873,1.873,0,0,1,1.872-1.872h.69a1.873,1.873,0,0,1,1.872,1.872V330.3a1.872,1.872,0,0,1-1.872,1.872" transform="translate(-67.606 -83.602)" fill="#e69724"/>
    <line id="Line_10" data-name="Line 10" x2="65.577" transform="translate(217.684 233.155)" fill="none" stroke="#f0c66c" stroke-linecap="round" stroke-width="1"/>
    <line id="Line_11" data-name="Line 11" x2="56.662" transform="translate(226.639 240.917)" fill="none" stroke="#f0c66c" stroke-linecap="round" stroke-width="1"/>
    <line id="Line_12" data-name="Line 12" x2="70.858" transform="translate(212.403 243.823)" fill="none" stroke="#f0c66c" stroke-linecap="round" stroke-width="1"/>
    <line id="Line_13" data-name="Line 13" x2="67.941" transform="translate(215.32 250.364)" fill="none" stroke="#f0c66c" stroke-linecap="round" stroke-width="1"/>
    <path id="Path_27765" data-name="Path 27765" d="M106.367,416.817a.964.964,0,0,0,1.019.9h97.955c7.265,0,13.156-4.294,13.156-9.59V405c0-5.3-5.891-9.59-13.156-9.59H107.386a.965.965,0,0,0-1.019.9v.162a.963.963,0,0,0,1.012.9l1.28.007.072,18.542h-1.344a.963.963,0,0,0-1.019.9" transform="translate(-27.868 -103.597)" fill="#f0c66c"/>
    <path id="Path_27766" data-name="Path 27766" d="M175.153,397.971l-65.681.076.072,18.542h66.288c3.41,0,6.173-2.437,6.173-5.444v-7.132c0-3.337-3.069-6.043-6.853-6.043" transform="translate(-28.682 -104.268)" fill="#f9ecdc"/>
    <line id="Line_14" data-name="Line 14" x1="68.791" transform="translate(80.863 296.594)" fill="none" stroke="#f0c66c" stroke-linecap="round" stroke-width="1"/>
    <line id="Line_15" data-name="Line 15" x1="63.831" transform="translate(80.863 299.389)" fill="none" stroke="#f0c66c" stroke-linecap="round" stroke-width="1"/>
    <line id="Line_16" data-name="Line 16" x1="68.791" transform="translate(80.863 304.451)" fill="none" stroke="#f0c66c" stroke-linecap="round" stroke-width="1"/>
    <line id="Line_17" data-name="Line 17" x1="69.87" transform="translate(80.863 309.706)" fill="none" stroke="#f0c66c" stroke-linecap="round" stroke-width="1"/>
    <line id="Line_18" data-name="Line 18" x2="291.399" transform="translate(40.118 314.113)" fill="none" stroke="#315782" stroke-linecap="round" stroke-width="1"/>
  </g>
</svg>
